# xmcd
#
# Track frame offsets:
#	150
#	10457
#	24110
#	35261
#	46576
#	61027
#	69313
#	79939
#	97852
#	110093
#	122079
#	140265
#	154673
#	165909
#	177438
#	191194
#	205560
#	226580
#	237023
#	246127
#
# Disc length: 3445 seconds
#
# Revision: 1
# Processed by: cddbd v1.5.2PL0 Copyright (c) Steve Scherf et al.
# Submitted via: audiograbber 1.83.01
#
DISCID=ea0d7314
DTITLE=Smoky Mountain Christmas - Smoky Mountain Christmas
DYEAR=2008
DGENRE=Christmas
TTITLE0=O Little Town Of Bethlehem
TTITLE1=Away In A Manger
TTITLE2=Joy To The World
TTITLE3=Go Tell It On The Mountain
TTITLE4=It Came Upon A Midnight Clear
TTITLE5=I Heard The Bells On Christmas Day
TTITLE6=Tomorrow Shall Be My Dancing Day
TTITLE7=God Rest Ye Merry, Gentlemen
TTITLE8=Hark, The Herald Angels Sing
TTITLE9=O Come, O Come, Emmanuel
TTITLE10=O Holy Night
TTITLE11=The First Noel
TTITLE12=The Holly And The Ivy
TTITLE13=Good Christian Men, Rejoice
TTITLE14=Brightest And Best
TTITLE15=O Christmas Tree
TTITLE16=Silent Night
TTITLE17=Wonderful Counselor
TTITLE18=New Year Jig
TTITLE19=Simple Gifts
EXTD=
EXTT0=
EXTT1=
EXTT2=
EXTT3=
EXTT4=
EXTT5=
EXTT6=
EXTT7=
EXTT8=
EXTT9=
EXTT10=
EXTT11=
EXTT12=
EXTT13=
EXTT14=
EXTT15=
EXTT16=
EXTT17=
EXTT18=
EXTT19=
PLAYORDER=
